<?xml version="1.0" encoding="utf-8"?>
<!-- Generator: Adobe Illustrator 28.0.0, SVG Export Plug-In . SVG Version: 6.00 Build 0)  -->
<svg version="1.1" id="Calque_1" xmlns="http://www.w3.org/2000/svg" xmlns:xlink="http://www.w3.org/1999/xlink" x="0px" y="0px"
	 viewBox="0 0 768 768" style="enable-background:new 0 0 768 768;" xml:space="preserve">
<style type="text/css">
	.st0{fill:#CD1517;}
	.st1{fill:none;}
	.st2{fill:#268035;}
	.st3{fill:#D54A15;}
	.st4{fill:#C61261;}
	.st5{fill:#54256B;}
	.st6{fill:#9B2B7C;}
	.st7{fill:#99B91F;}
	.st8{fill:#EFAE00;}
	.st9{fill:#2A9086;}
	.st10{fill-rule:evenodd;clip-rule:evenodd;fill:#4F46E5;}
</style>
<g>
	<path class="st0" d="M244,368.8l127.6-127.6c8.3-8.3,22.2-8.3,30.5,0l127.6,127.6c8.3,8.3,8.3,22.2,0,30.5L402.1,526.9
		c-8.3,8.3-22.2,8.3-30.5,0L244,399.3C235.7,391,235.7,377.2,244,368.8z"/>
	<path class="st1" d="M540.8,416c8.3-8.3,19.4-13.9,33.3-13.9v122c0,25-22.2,47.1-47.1,47.1l0,0h-122c0-11.1,5.5-25,13.9-33.3
		L540.8,416z"/>
	<path class="st1" d="M418.7,227.4c-8.3-8.3-13.9-19.4-13.9-33.3h122c25,0,47.1,22.2,47.1,47.1v122c-11.1,0-25-5.5-33.3-13.9
		L418.7,227.4z"/>
	<path class="st1" d="M352.2,540.8c8.3,8.3,13.9,19.4,13.9,33.3H244c-25,0-47.1-22.2-47.1-47.1v-122c11.1,0,25,5.5,33.3,13.9
		L352.2,540.8z"/>
	<path class="st1" d="M241.2,194.1h122c0,11.1-5.5,25-13.9,33.3l-122,122c-8.3,8.3-19.4,13.9-33.3,13.9v-122
		C196.9,216.3,216.3,194.1,241.2,194.1z"/>
	<path class="st2" d="M574,526.9v-122c11.1,0,25,5.5,33.3,13.9l122,122c19.4,19.4,19.4,47.1,0,66.6l-122,122
		c-19.4,19.4-47.1,19.4-66.6,0l-122-122c-8.3-8.3-13.9-19.4-13.9-33.3h122C551.9,574.1,574,551.9,574,526.9L574,526.9z"/>
	<path class="st3" d="M352.2,160.8c8.3,8.3,13.9,19.4,13.9,33.3H244c-25,0-47.1,22.2-47.1,47.1v122c-11.1,0-25-5.5-33.3-13.9
		l-124.8-122c-19.4-19.4-19.4-47.1,0-66.6l124.8-122c19.4-19.4,47.1-19.4,66.6,0L352.2,160.8z"/>
	<path class="st4" d="M526.9,194.1h-122c0-11.1,5.5-25,13.9-33.3l122-122c19.4-19.4,47.1-19.4,66.6,0l122,122
		c19.4,19.4,19.4,47.1,0,66.6l-122,122c-8.3,8.3-19.4,13.9-33.3,13.9v-122C574,216.3,551.9,194.1,526.9,194.1z"/>
	<path class="st5" d="M241.2,574.1h122c0,11.1-5.5,25-13.9,33.3l-122,122c-19.4,19.4-47.1,19.4-66.6,0l-122-122
		c-19.4-19.4-19.4-47.1,0-66.6l122-122c8.3-8.3,19.4-13.9,33.3-13.9v122C196.9,551.9,216.3,574.1,241.2,574.1z"/>
	<path class="st6" d="M349.4,540.8c8.3,8.3,13.9,19.4,13.9,33.3h-122c-25,0-47.1-22.2-47.1-47.1v-122c11.1,0,25,5.5,33.3,13.9
		L349.4,540.8z"/>
	<path class="st7" d="M418.7,540.8l122-122c8.3-8.3,19.4-13.9,33.3-13.9v122c0,25-22.2,47.1-47.1,47.1l0,0h-122
		C404.9,560.2,410.4,549.1,418.7,540.8z"/>
	<path class="st8" d="M227.4,349.4c-8.3,8.3-19.4,13.9-33.3,13.9v-122c0-25,22.2-47.1,47.1-47.1h122c0,11.1-5.5,25-13.9,33.3
		L227.4,349.4z"/>
	<path class="st9" d="M574,241.3v122c-11.1,0-25-5.5-33.3-13.9l-122-122c-8.3-8.3-13.9-19.4-13.9-33.3h122
		C551.9,194.1,574,216.3,574,241.3z"/>
	<g>
		<path class="st10" d="M585.1,155.3c0,13.9-11.1,25-25,27.7c-8.3,0-13.9-2.8-19.4-8.3c-11.1-11.1-8.3-27.7,0-36.1
			c5.5-5.5,11.1-8.3,16.6-8.3C574,130.3,585.1,141.4,585.1,155.3z"/>
		<path class="st10" d="M249.6,180.2c13.9,0,25-11.1,27.7-25l0,0c0-13.9-11.1-25-25-25l0,0c-13.9,0-25,11.1-25,25
			C224.6,169.2,235.7,180.2,249.6,180.2z"/>
		<path class="st10" d="M285.6,421.5c-5.5-5.5-5.5-13.9,0-19.4l0,0l19.4-19.4c5.5-5.5,13.9-5.5,19.4,0l0,0l63.8,63.8L529.7,305
			c5.5-5.5,13.9-5.5,19.4,0l19.4,19.4c5.5,5.5,5.5,13.9,0,19.4l0,0L399.3,513c-5.5,5.5-13.9,5.5-19.4,0
			C377.1,513,285.6,421.5,285.6,421.5z"/>
	</g>
</g>
</svg>
