<?xml version="1.0" encoding="utf-8"?>
<!-- Generator: Adobe Illustrator 28.0.0, SVG Export Plug-In . SVG Version: 6.00 Build 0)  -->
<svg version="1.1" id="Calque_1" xmlns="http://www.w3.org/2000/svg" xmlns:xlink="http://www.w3.org/1999/xlink" x="0px" y="0px"
	 viewBox="0 0 120 27" style="enable-background:new 0 0 120 27;" xml:space="preserve">
<style type="text/css">
	.st0{fill:#4F46E5;}
	.st1{fill:#C61261;}
	.st2{fill-rule:evenodd;clip-rule:evenodd;fill:#268035;}
	.st3{fill-rule:evenodd;clip-rule:evenodd;fill:#54256B;}
	.st4{fill-rule:evenodd;clip-rule:evenodd;fill:#D54A15;}
	.st5{fill-rule:evenodd;clip-rule:evenodd;fill:#CD1517;}
	.st6{fill:#CD1517;}
	.st7{fill:none;}
	.st8{fill:#268035;}
	.st9{fill:#D54A15;}
	.st10{fill:#54256B;}
	.st11{fill:#9B2B7C;}
	.st12{fill:#99B91F;}
	.st13{fill:#EFAE00;}
	.st14{fill:#2A9086;}
	.st15{fill-rule:evenodd;clip-rule:evenodd;fill:#4F46E5;}
	.st16{fill:#706F6F;}
	.st17{fill:#606060;}
</style>
<path class="st0" d="M42.9,9.5c0.4-0.2,0.7-0.4,1-0.6c0.4-0.3,0.8-0.7,1-1.2s0.4-1.1,0.4-1.7c0-0.8-0.2-1.5-0.6-2.1
	c-0.4-0.6-1-1-1.7-1.3s-1.6-0.4-2.6-0.4h-4.9V15H38v-4.8h2.4L43,15h2.7v-0.1L42.9,9.5z M42.5,7.2c-0.2,0.3-0.4,0.6-0.8,0.7
	c-0.3,0.2-0.8,0.3-1.3,0.3H38V4h2.3c0.5,0,1,0.1,1.3,0.3c0.3,0.2,0.6,0.4,0.8,0.7c0.2,0.3,0.3,0.7,0.3,1.1
	C42.8,6.5,42.7,6.9,42.5,7.2z"/>
<g>
	<path class="st1" d="M57.3,2.1h-0.6l0,0H55l-5,12.8h2.7l1-2.8h5l1,2.8h2.7L57.3,2.1z M54.3,10.1L54.3,10.1L54.3,10.1L54.3,10.1
		L56.1,5l1.8,5.2L54.3,10.1L54.3,10.1z"/>
	<path class="st1" d="M54.3,10.1L54.3,10.1L54.3,10.1z"/>
</g>
<polygon class="st2" points="75.8,13 75.8,14.9 67.3,14.9 67.3,2.1 69.8,2.1 69.8,13 "/>
<polygon class="st3" points="89.6,14.9 89.6,13 83.6,13 83.6,2.1 81.1,2.1 81.1,14.9 "/>
<polygon class="st4" points="103.4,13 103.4,14.9 94.9,14.9 94.9,2.1 97.4,2.1 97.4,13 "/>
<polygon class="st5" points="110.8,8.1 107.8,2.1 105,2.1 109.5,10.2 109.5,14.9 112.1,14.9 112.1,10.2 116.5,2.1 113.7,2.1 "/>
<g>
	<path class="st6" d="M14.3,12.9l4.6-4.6C19.2,8,19.7,8,20,8.3l4.6,4.6c0.3,0.3,0.3,0.8,0,1.1L20,18.6c-0.3,0.3-0.8,0.3-1.1,0
		L14.3,14C14,13.7,14,13.2,14.3,12.9z"/>
	<path class="st7" d="M25,14.6c0.3-0.3,0.7-0.5,1.2-0.5v4.4c0,0.9-0.8,1.7-1.7,1.7l0,0h-4.4c0-0.4,0.2-0.9,0.5-1.2L25,14.6z"/>
	<path class="st7" d="M20.6,7.8c-0.3-0.3-0.5-0.7-0.5-1.2h4.4c0.9,0,1.7,0.8,1.7,1.7v4.4c-0.4,0-0.9-0.2-1.2-0.5L20.6,7.8z"/>
	<path class="st7" d="M18.2,19.1c0.3,0.3,0.5,0.7,0.5,1.2h-4.4c-0.9,0-1.7-0.8-1.7-1.7v-4.4c0.4,0,0.9,0.2,1.2,0.5L18.2,19.1z"/>
	<path class="st7" d="M14.2,6.6h4.4c0,0.4-0.2,0.9-0.5,1.2l-4.4,4.4c-0.3,0.3-0.7,0.5-1.2,0.5V8.3C12.6,7.4,13.3,6.6,14.2,6.6z"/>
	<path class="st8" d="M26.2,18.6v-4.4c0.4,0,0.9,0.2,1.2,0.5l4.4,4.4c0.7,0.7,0.7,1.7,0,2.4l-4.4,4.4c-0.7,0.7-1.7,0.7-2.4,0
		l-4.4-4.4c-0.3-0.3-0.5-0.7-0.5-1.2h4.4C25.4,20.3,26.2,19.5,26.2,18.6L26.2,18.6z"/>
	<path class="st9" d="M18.2,5.4c0.3,0.3,0.5,0.7,0.5,1.2h-4.4c-0.9,0-1.7,0.8-1.7,1.7v4.4c-0.4,0-0.9-0.2-1.2-0.5L6.9,7.8
		c-0.7-0.7-0.7-1.7,0-2.4L11.4,1c0.7-0.7,1.7-0.7,2.4,0L18.2,5.4z"/>
	<path class="st1" d="M24.5,6.6h-4.4c0-0.4,0.2-0.9,0.5-1.2L25,1c0.7-0.7,1.7-0.7,2.4,0l4.4,4.4c0.7,0.7,0.7,1.7,0,2.4l-4.4,4.4
		c-0.3,0.3-0.7,0.5-1.2,0.5V8.3C26.2,7.4,25.4,6.6,24.5,6.6z"/>
	<path class="st10" d="M14.2,20.3h4.4c0,0.4-0.2,0.9-0.5,1.2l-4.4,4.4c-0.7,0.7-1.7,0.7-2.4,0l-4.4-4.4c-0.7-0.7-0.7-1.7,0-2.4
		l4.4-4.4c0.3-0.3,0.7-0.5,1.2-0.5v4.4C12.6,19.5,13.3,20.3,14.2,20.3z"/>
	<path class="st11" d="M18.1,19.1c0.3,0.3,0.5,0.7,0.5,1.2h-4.4c-0.9,0-1.7-0.8-1.7-1.7v-4.4c0.4,0,0.9,0.2,1.2,0.5L18.1,19.1z"/>
	<path class="st12" d="M20.6,19.1l4.4-4.4c0.3-0.3,0.7-0.5,1.2-0.5v4.4c0,0.9-0.8,1.7-1.7,1.7l0,0h-4.4
		C20.1,19.8,20.3,19.4,20.6,19.1z"/>
	<path class="st13" d="M13.7,12.2c-0.3,0.3-0.7,0.5-1.2,0.5V8.3c0-0.9,0.8-1.7,1.7-1.7h4.4c0,0.4-0.2,0.9-0.5,1.2L13.7,12.2z"/>
	<path class="st14" d="M26.2,8.3v4.4c-0.4,0-0.9-0.2-1.2-0.5l-4.4-4.4c-0.3-0.3-0.5-0.7-0.5-1.2h4.4C25.4,6.6,26.2,7.4,26.2,8.3z"/>
	<g>
		<path class="st15" d="M26.6,5.2c0,0.5-0.4,0.9-0.9,1c-0.3,0-0.5-0.1-0.7-0.3c-0.4-0.4-0.3-1,0-1.3c0.2-0.2,0.4-0.3,0.6-0.3
			C26.2,4.3,26.6,4.7,26.6,5.2z"/>
		<path class="st15" d="M14.5,6.1c0.5,0,0.9-0.4,1-0.9l0,0c0-0.5-0.4-0.9-0.9-0.9l0,0c-0.5,0-0.9,0.4-0.9,0.9
			C13.6,5.7,14,6.1,14.5,6.1z"/>
		<path class="st15" d="M15.8,14.8c-0.2-0.2-0.2-0.5,0-0.7l0,0l0.7-0.7c0.2-0.2,0.5-0.2,0.7,0l0,0l2.3,2.3l5.1-5.1
			c0.2-0.2,0.5-0.2,0.7,0l0.7,0.7c0.2,0.2,0.2,0.5,0,0.7l0,0l-6.1,6.1c-0.2,0.2-0.5,0.2-0.7,0C19.1,18.1,15.8,14.8,15.8,14.8z"/>
	</g>
</g>
<g>
	<path class="st16" d="M89.6,22.5c0,0.3-0.1,0.6-0.2,0.9s-0.3,0.5-0.6,0.8c-0.3,0.2-0.6,0.4-0.9,0.5c-0.4,0.1-0.7,0.2-1.1,0.2
		c-0.3,0-0.7,0-1-0.1c-0.3,0-0.6-0.1-0.8-0.2c-0.3-0.1-0.5-0.2-0.7-0.4c-0.3-0.2-0.5-0.3-0.7-0.5l1.2-1.2c0.3,0.3,0.6,0.5,1,0.6
		c0.3,0.1,0.7,0.2,1.1,0.2c0.2,0,0.3,0,0.4-0.1c0.1,0,0.3-0.1,0.4-0.2s0.2-0.2,0.2-0.3c0.1-0.1,0.1-0.2,0.1-0.4c0-0.1,0-0.2-0.1-0.4
		c-0.1-0.1-0.2-0.2-0.3-0.3c-0.2-0.1-0.3-0.2-0.5-0.3c-0.2-0.1-0.5-0.2-0.9-0.3c-0.3-0.1-0.6-0.2-0.9-0.4c-0.3-0.1-0.5-0.3-0.8-0.5
		c-0.2-0.2-0.4-0.5-0.5-0.7c-0.1-0.3-0.2-0.6-0.2-1c0-0.3,0.1-0.7,0.2-1s0.3-0.6,0.6-0.8c0.3-0.2,0.6-0.4,0.9-0.5
		c0.4-0.1,0.7-0.2,1.1-0.2c0.7,0,1.2,0.1,1.7,0.3c0.4,0.2,0.9,0.4,1.2,0.7l-1.2,1.2c-0.2-0.2-0.5-0.4-0.7-0.5
		c-0.3-0.1-0.6-0.2-0.9-0.2c-0.2,0-0.3,0-0.5,0.1c-0.1,0-0.3,0.1-0.4,0.2s-0.2,0.2-0.2,0.3c-0.1,0.1-0.1,0.2-0.1,0.3
		c0,0.1,0,0.3,0.1,0.4s0.2,0.2,0.3,0.3c0.2,0.1,0.3,0.2,0.5,0.3c0.2,0.1,0.5,0.2,0.8,0.3c0.4,0.1,0.8,0.3,1.1,0.5
		c0.3,0.2,0.5,0.4,0.7,0.6s0.3,0.5,0.4,0.7C89.6,21.9,89.6,22.2,89.6,22.5z"/>
	<path class="st16" d="M98.6,23.2c-0.4,0.5-1,0.9-1.6,1.2c-0.6,0.3-1.3,0.5-2,0.5c-1.2,0-2.4-0.5-3.2-1.3c-0.4-0.4-0.7-0.9-1-1.4
		c-0.5-1.1-0.5-2.4,0-3.5s1.3-1.9,2.4-2.4c0.6-0.2,1.2-0.3,1.8-0.3c0.7,0,1.4,0.1,2,0.5c0.6,0.3,1.1,0.7,1.5,1.2l-1.1,1.2
		c-0.3-0.4-0.6-0.7-1-0.9c-0.8-0.4-1.7-0.5-2.5-0.1c-0.3,0.1-0.7,0.4-0.9,0.6c-0.3,0.3-0.5,0.6-0.6,0.9c-0.3,0.7-0.3,1.5,0,2.2
		c0.1,0.3,0.4,0.6,0.6,0.9c0.3,0.3,0.6,0.5,0.9,0.6c0.4,0.2,0.7,0.2,1.1,0.2c0.5,0,1-0.1,1.4-0.4c0.4-0.2,0.8-0.6,1-0.9L98.6,23.2z"
		/>
	<path class="st16" d="M105.4,17.7H103v7.1h-1.7v-7.1H99v-1.5h6.4V17.7z"/>
	<path class="st16" d="M113.8,23.2c-0.2,0.3-0.5,0.5-0.8,0.8c-0.3,0.2-0.6,0.4-0.9,0.5s-0.6,0.2-1,0.3c-0.3,0.1-0.6,0.1-1,0.1
		c-0.6,0-1.2-0.1-1.8-0.3c-0.5-0.2-1-0.5-1.5-0.9c-0.4-0.4-0.8-0.9-1-1.4c-0.5-1.1-0.5-2.4,0-3.5c0.2-0.5,0.6-1,1-1.4
		s0.9-0.7,1.5-0.9c0.6-0.2,1.2-0.4,1.8-0.3c0.7,0,1.4,0.1,2,0.5c0.6,0.3,1.1,0.7,1.5,1.2l-1.1,1.1c-0.3-0.4-0.7-0.7-1.1-0.9
		c-0.4-0.2-0.9-0.3-1.3-0.3s-0.8,0.1-1.1,0.2c-0.3,0.1-0.7,0.4-0.9,0.6c-0.3,0.3-0.5,0.6-0.6,0.9c-0.3,0.7-0.3,1.5,0,2.2
		c0.2,0.3,0.4,0.7,0.6,0.9c0.6,0.5,1.3,0.9,2.1,0.8c0.4,0,0.7-0.1,1.1-0.2c0.3-0.1,0.6-0.3,0.9-0.6v-0.8h-1.8v-1.4h3.3v2.8H113.8z"
		/>
	<g>
		<path class="st17" d="M70.5,18.2c0.1,0.1,0.2,0.1,0.3,0.2s0.2,0,0.4,0.1c0.1,0,0.3,0,0.4,0s0.3,0,0.4,0c0.2,0,0.4,0.1,0.6,0.2
			s0.4,0.2,0.5,0.3c0.2,0.1,0.3,0.3,0.4,0.5s0.2,0.4,0.2,0.7c0,0.2,0,0.5-0.1,0.7s-0.2,0.4-0.3,0.6c-0.1,0.2-0.2,0.4-0.4,0.5
			c-0.1,0.2-0.3,0.3-0.4,0.5c-0.4,0.4-0.9,0.7-1.4,0.9c-0.1,0-0.2,0.1-0.3,0.1c-0.1,0.1-0.3,0.1-0.5,0.2s-0.3,0.1-0.5,0.1
			s-0.3,0-0.4,0s-0.3-0.1-0.4-0.1c-0.1-0.1-0.2-0.1-0.2-0.2c-0.1-0.1-0.1-0.2-0.1-0.3c0-0.1-0.1-0.2-0.1-0.3c0-0.1,0-0.3,0-0.4
			s0-0.3,0-0.5s0-0.3,0.1-0.5c0-0.2,0-0.3,0-0.5c0-0.6,0.1-1.2,0.2-1.8c0.1-0.6,0.1-1.2,0.2-1.7c0-0.1,0-0.3,0-0.4s0-0.3,0-0.5
			s0-0.3,0.1-0.5c0-0.2,0.1-0.3,0.1-0.4c0-0.1,0.1-0.2,0.2-0.2c0.1-0.1,0.2-0.1,0.3-0.1s0.2,0,0.3,0.1s0.2,0.1,0.2,0.3
			c0,0.1,0.1,0.2,0.1,0.3s0,0.3,0,0.4s0,0.3,0,0.4s0,0.3-0.1,0.4c0,0.2,0,0.4,0,0.6C70.4,17.8,70.4,18,70.5,18.2z M69.8,22.6
			c0.1,0,0.2,0,0.4-0.1c0.2-0.1,0.3-0.1,0.5-0.2s0.3-0.2,0.5-0.3c0.1-0.1,0.3-0.2,0.3-0.3c0.1-0.1,0.2-0.2,0.3-0.3
			c0.1-0.1,0.2-0.2,0.3-0.3s0.2-0.2,0.2-0.3c0.1-0.1,0.1-0.2,0.1-0.3c0-0.2-0.1-0.3-0.2-0.4s-0.3-0.2-0.5-0.3
			c-0.2-0.1-0.4-0.1-0.6-0.1s-0.4,0-0.6,0c-0.1,0.1-0.2,0.4-0.3,0.7C70,20.5,70,20.8,70,21.1L69.8,22.6z"/>
		<path class="st17" d="M76.7,22c0-0.1,0.1-0.2,0.1-0.4c0.1-0.2,0.1-0.4,0.2-0.6s0.1-0.5,0.2-0.8s0.2-0.5,0.2-0.8
			c0.1-0.2,0.2-0.5,0.2-0.7c0.1-0.2,0.2-0.3,0.2-0.4s0.1-0.1,0.2-0.2c0.1,0,0.2-0.1,0.3-0.1s0.2,0,0.3,0.1c0.1,0.1,0.2,0.1,0.2,0.3
			c0,0.1,0,0.2,0,0.5s-0.1,0.5-0.2,0.8s-0.2,0.7-0.3,1.1c-0.1,0.4-0.3,0.8-0.4,1.2c-0.1,0.4-0.3,0.8-0.5,1.1
			c-0.2,0.4-0.3,0.7-0.5,0.9c-0.2,0.3-0.3,0.6-0.4,0.8c-0.1,0.3-0.3,0.5-0.5,0.8c0,0-0.1,0.1-0.2,0.3c-0.1,0.1-0.2,0.2-0.4,0.4
			s-0.3,0.2-0.5,0.2s-0.4,0-0.5-0.1c-0.2-0.1-0.2-0.2-0.2-0.4c0-0.1,0.1-0.2,0.2-0.4s0.2-0.2,0.3-0.3c0.1-0.1,0.2-0.2,0.3-0.2
			c0.2-0.2,0.4-0.5,0.5-0.8c0.2-0.3,0.3-0.6,0.3-0.9c0-0.1,0-0.2,0-0.3c0-0.1-0.1-0.2-0.1-0.3c-0.1-0.1-0.1-0.2-0.2-0.3
			c-0.1-0.1-0.1-0.2-0.2-0.3c-0.1-0.2-0.2-0.4-0.3-0.5s-0.2-0.3-0.3-0.5s-0.2-0.3-0.3-0.5s-0.2-0.4-0.2-0.6
			c-0.1-0.2-0.2-0.4-0.3-0.6c-0.1-0.2-0.1-0.5-0.1-0.7c0-0.1,0.1-0.3,0.1-0.4c0.1-0.1,0.2-0.2,0.2-0.3c0.1-0.1,0.2-0.1,0.3-0.1
			c0.1,0,0.2,0,0.4,0.1c0.1,0.1,0.2,0.2,0.2,0.3c0,0.2,0.1,0.3,0.1,0.5c0.1,0.2,0.2,0.5,0.2,0.7s0.2,0.5,0.3,0.8
			c0.1,0.2,0.2,0.5,0.3,0.7C76.5,21.6,76.6,21.8,76.7,22z"/>
	</g>
</g>
</svg>
